<?xml version="1.0" encoding="UTF-8"?>
<svg xmlns="http://www.w3.org/2000/svg" xmlns:xlink="http://www.w3.org/1999/xlink" width="48pt" height="48pt" viewBox="0 0 48 48" version="1.1">
<g id="surface5367492">
<path style=" stroke:none;fill-rule:nonzero;fill:rgb(40.000001%,40.000001%,40.000001%);fill-opacity:1;" d="M 45 29.316406 C 45 28.679688 43.3125 28.164062 41.230469 28.164062 C 39.417969 28.164062 37.910156 28.554688 37.546875 29.074219 C 33.960938 27.378906 30.375 25.6875 26.789062 23.992188 C 25.539062 23.402344 24.117188 23.40625 22.871094 24.003906 C 19.054688 25.84375 15.234375 27.679688 11.417969 29.515625 C 10.554688 29.390625 9.511719 29.316406 8.386719 29.316406 C 5.40625 29.316406 3 29.832031 3 30.46875 L 3 33.929688 C 3 33.960938 3.03125 33.992188 3.046875 34.023438 C 2.898438 34.578125 3.113281 35.230469 3.695312 35.503906 C 9.335938 38.167969 14.976562 40.832031 20.617188 43.496094 C 22.046875 44.175781 23.683594 44.167969 25.113281 43.480469 C 31.554688 40.382812 37.996094 37.28125 44.4375 34.183594 C 44.921875 33.949219 45.089844 33.394531 44.949219 32.933594 C 44.972656 32.882812 45 32.828125 45 32.773438 Z M 45 29.316406 "/>
<path style=" stroke:none;fill-rule:nonzero;fill:rgb(0%,0%,0%);fill-opacity:1;" d="M 20.617188 39.15625 C 14.976562 36.636719 9.335938 34.113281 3.695312 31.59375 C 2.773438 31.179688 2.769531 29.863281 3.6875 29.445312 C 10.082031 26.535156 16.476562 23.621094 22.871094 20.710938 C 24.113281 20.144531 25.539062 20.136719 26.789062 20.695312 C 32.671875 23.324219 38.550781 25.953125 44.433594 28.585938 C 45.1875 28.921875 45.191406 30 44.4375 30.339844 C 37.996094 33.273438 31.554688 36.210938 25.113281 39.140625 C 23.683594 39.792969 22.046875 39.796875 20.617188 39.15625 Z M 20.617188 39.15625 "/>
<path style=" stroke:none;fill-rule:nonzero;fill:rgb(40.000001%,40.000001%,40.000001%);fill-opacity:1;" d="M 45 21.675781 C 45 21.039062 43.3125 20.523438 41.230469 20.523438 C 39.417969 20.523438 37.910156 20.914062 37.546875 21.433594 C 33.960938 19.738281 30.375 18.046875 26.789062 16.351562 C 25.539062 15.761719 24.117188 15.765625 22.871094 16.363281 C 19.054688 18.199219 15.234375 20.039062 11.417969 21.875 C 10.554688 21.75 9.511719 21.675781 8.386719 21.675781 C 5.40625 21.675781 3 22.191406 3 22.828125 L 3 26.289062 C 3 26.320312 3.03125 26.351562 3.046875 26.386719 C 2.898438 26.941406 3.113281 27.589844 3.695312 27.863281 C 9.335938 30.527344 14.976562 33.191406 20.617188 35.855469 C 22.046875 36.535156 23.683594 36.527344 25.113281 35.839844 C 31.554688 32.742188 37.996094 29.640625 44.4375 26.542969 C 44.921875 26.308594 45.089844 25.757812 44.949219 25.296875 C 44.972656 25.242188 45 25.191406 45 25.136719 Z M 45 21.675781 "/>
<path style=" stroke:none;fill-rule:nonzero;fill:rgb(0%,0%,0%);fill-opacity:1;" d="M 20.617188 31.515625 C 14.976562 28.996094 9.335938 26.472656 3.695312 23.949219 C 2.773438 23.539062 2.769531 22.222656 3.6875 21.804688 C 10.082031 18.894531 16.476562 15.980469 22.871094 13.070312 C 24.113281 12.503906 25.539062 12.496094 26.789062 13.054688 C 32.671875 15.683594 38.550781 18.3125 44.433594 20.945312 C 45.1875 21.28125 45.191406 22.359375 44.4375 22.699219 C 37.996094 25.632812 31.554688 28.566406 25.113281 31.5 C 23.683594 32.152344 22.046875 32.15625 20.617188 31.515625 Z M 20.617188 31.515625 "/>
<path style=" stroke:none;fill-rule:nonzero;fill:rgb(40.000001%,40.000001%,40.000001%);fill-opacity:1;" d="M 45 14.035156 C 45 13.398438 43.3125 12.882812 41.230469 12.882812 C 39.417969 12.882812 37.910156 13.273438 37.546875 13.792969 C 33.960938 12.097656 30.375 10.40625 26.789062 8.710938 C 25.539062 8.121094 24.117188 8.125 22.871094 8.722656 C 19.054688 10.5625 15.234375 12.398438 11.417969 14.234375 C 10.554688 14.109375 9.511719 14.035156 8.386719 14.035156 C 5.40625 14.035156 3 14.550781 3 15.1875 L 3 18.648438 C 3 18.679688 3.03125 18.710938 3.046875 18.742188 C 2.898438 19.300781 3.113281 19.949219 3.695312 20.222656 C 9.335938 22.886719 14.976562 25.550781 20.617188 28.214844 C 22.046875 28.894531 23.683594 28.886719 25.113281 28.199219 C 31.554688 25.101562 37.996094 22 44.4375 18.902344 C 44.921875 18.667969 45.089844 18.113281 44.949219 17.652344 C 44.972656 17.601562 45 17.550781 45 17.492188 Z M 45 14.035156 "/>
<path style=" stroke:none;fill-rule:nonzero;fill:rgb(0%,0%,0%);fill-opacity:1;" d="M 20.617188 23.878906 C 14.976562 21.355469 9.335938 18.832031 3.695312 16.3125 C 2.773438 15.898438 2.769531 14.585938 3.6875 14.164062 C 10.082031 11.253906 16.476562 8.339844 22.871094 5.429688 C 24.113281 4.863281 25.539062 4.855469 26.789062 5.414062 C 32.671875 8.046875 38.550781 10.675781 44.433594 13.304688 C 45.1875 13.640625 45.191406 14.71875 44.4375 15.058594 C 37.996094 17.992188 31.554688 20.929688 25.113281 23.859375 C 23.683594 24.511719 22.046875 24.515625 20.617188 23.878906 Z M 20.617188 23.878906 "/>
<path style=" stroke:none;fill-rule:nonzero;fill:rgb(80.000001%,80.000001%,80.000001%);fill-opacity:1;" d="M 18.746094 14.742188 C 18.746094 15.78125 15.984375 16.796875 13.65625 16.828125 C 11.234375 16.855469 8.382812 15.835938 8.371094 14.777344 C 8.363281 13.714844 11.214844 12.613281 13.683594 12.640625 C 16.015625 12.664062 18.75 13.703125 18.746094 14.742188 Z M 18.746094 14.742188 "/>
<path style=" stroke:none;fill-rule:nonzero;fill:rgb(80.000001%,80.000001%,80.000001%);fill-opacity:1;" d="M 17.039062 18.472656 C 19.429688 19.492188 21.824219 20.515625 24.214844 21.539062 C 25.269531 19.976562 26.324219 18.417969 27.378906 16.859375 C 23.929688 17.394531 20.484375 17.933594 17.039062 18.472656 Z M 17.039062 18.472656 "/>
<path style=" stroke:none;fill-rule:nonzero;fill:rgb(80.000001%,80.000001%,80.000001%);fill-opacity:1;" d="M 21.859375 9.773438 C 20.757812 10.175781 19.65625 10.574219 18.554688 10.976562 C 20.0625 11.109375 21.570312 11.242188 23.078125 11.371094 C 23.558594 12.167969 24.035156 12.964844 24.515625 13.757812 C 24.8125 13.035156 25.105469 12.316406 25.402344 11.59375 C 26.6875 11.492188 27.972656 11.394531 29.261719 11.292969 C 28.261719 10.875 27.265625 10.453125 26.269531 10.035156 C 26.523438 9.425781 26.777344 8.816406 27.03125 8.210938 C 26.0625 8.5 25.09375 8.789062 24.121094 9.078125 C 23.050781 8.65625 21.980469 8.234375 20.910156 7.8125 C 21.226562 8.46875 21.542969 9.121094 21.859375 9.773438 Z M 21.859375 9.773438 "/>
<path style=" stroke:none;fill-rule:nonzero;fill:rgb(40.000001%,40.000001%,40.000001%);fill-opacity:1;" d="M 27.265625 14.617188 C 29.539062 13.714844 31.808594 12.804688 34.082031 11.898438 C 36.042969 12.734375 38.003906 13.566406 39.96875 14.402344 C 37.765625 15.277344 35.5625 16.152344 33.363281 17.03125 C 31.332031 16.226562 29.300781 15.421875 27.265625 14.617188 Z M 27.265625 14.617188 "/>
<path style=" stroke:none;fill-rule:nonzero;fill:rgb(100%,100%,100%);fill-opacity:1;" d="M 34.082031 11.964844 C 34.078125 13.558594 34.070312 15.152344 34.066406 16.75 C 36.035156 15.96875 38 15.183594 39.96875 14.402344 C 38.007812 13.589844 36.042969 12.777344 34.082031 11.964844 Z M 34.082031 11.964844 "/>
</g>
</svg>
